<?xml version="1.0" encoding="UTF-8" standalone="no"?>
<!-- Created with Inkscape (http://www.inkscape.org/) -->

<svg
   xmlns:dc="http://purl.org/dc/elements/1.1/"
   xmlns:cc="http://creativecommons.org/ns#"
   xmlns:rdf="http://www.w3.org/1999/02/22-rdf-syntax-ns#"
   xmlns:svg="http://www.w3.org/2000/svg"
   xmlns="http://www.w3.org/2000/svg"
   xmlns:sodipodi="http://sodipodi.sourceforge.net/DTD/sodipodi-0.dtd"
   xmlns:inkscape="http://www.inkscape.org/namespaces/inkscape"
   id="svg5344"
   version="1.1"
   inkscape:version="0.48.5 r"
   width="1365"
   height="421"
   sodipodi:docname="포스텍 비긴즈.png">
  <metadata
     id="metadata5350">
    <rdf:RDF>
      <cc:Work
         rdf:about="">
        <dc:format>image/svg+xml</dc:format>
        <dc:type
           rdf:resource="http://purl.org/dc/dcmitype/StillImage" />
        <dc:title></dc:title>
      </cc:Work>
    </rdf:RDF>
  </metadata>
  <defs
     id="defs5348" />
  <sodipodi:namedview
     pagecolor="#ffffff"
     bordercolor="#666666"
     borderopacity="1"
     objecttolerance="10"
     gridtolerance="10"
     guidetolerance="10"
     inkscape:pageopacity="0"
     inkscape:pageshadow="2"
     inkscape:window-width="1920"
     inkscape:window-height="1017"
     id="namedview5346"
     showgrid="false"
     inkscape:zoom="0.65893027"
     inkscape:cx="982.94912"
     inkscape:cy="379.51249"
     inkscape:window-x="-8"
     inkscape:window-y="-8"
     inkscape:window-maximized="1"
     inkscape:current-layer="svg5344" />
  <path
     style="fill:#000000"
     d="m 121.5158,287.75 c -0.31616,-1.7875 -0.67405,-6.83894 -0.79531,-11.22542 L 120.5,268.54916 159,263.15129 c 21.175,-2.96883 38.58731,-5.46719 38.69401,-5.55193 0.33101,-0.26284 -4.55704,-43.79572 -4.96316,-44.20184 -0.21076,-0.21076 -13.50904,1.49095 -29.55175,3.78158 -16.0427,2.29063 -29.39382,3.93952 -29.66914,3.66419 -0.5827,-0.5827 -3.79717,-28.91203 -3.32621,-29.31414 0.17394,-0.14851 5.19445,-0.96902 11.15669,-1.82336 5.96224,-0.85433 11.06232,-1.77521 11.3335,-2.0464 0.53986,-0.53986 -6.11283,-64.46089 -6.76925,-65.04097 -0.22258,-0.19669 -5.24775,0.32814 -11.16706,1.16628 -5.9193,0.83815 -11.05119,1.23507 -11.40421,0.88205 -0.35302,-0.35301 -1.33161,-6.72829 -2.17466,-14.16727 -1.21733,-10.741659 -1.27832,-13.780029 -0.29631,-14.762453 0.95487,-0.955277 18.16491,-1.30221 75.56093,-1.523216 l 74.32443,-0.286188 0.61244,2.286188 c 0.33684,1.257404 0.61859,3.704188 0.6261,5.437299 l 0.0136,3.15111 -10.40894,1.23359 c -5.72491,0.67848 -10.8962,1.53474 -11.49175,1.90281 -0.75897,0.46907 -0.0345,10.20274 2.42238,32.54541 1.92786,17.53191 3.71563,32.08663 3.97283,32.34382 0.25719,0.2572 5.24182,-0.0982 11.07695,-0.78972 5.89939,-0.69915 10.9658,-0.87572 11.41229,-0.39773 0.86874,0.93001 3.66263,28.09986 2.94898,28.67805 -0.23801,0.19283 -13.40245,2.18227 -29.25432,4.42099 -15.85187,2.23871 -29.08735,4.33615 -29.41218,4.66098 -0.32483,0.32483 0.45515,10.26762 1.73327,22.09509 L 227.32338,253 l 2.58831,-0.0441 C 231.33526,252.93159 246,250.99437 262.5,248.65092 l 30,-4.26082 0.28078,11.80495 0.28078,11.80495 2.71922,-0.0568 C 297.27635,267.91194 336.075,262.60069 382,256.1404 l 83.5,-11.74597 0.2768,14.94265 c 0.15224,8.21846 0.14879,15.07066 -0.008,15.22711 -0.15645,0.15645 -26.19022,3.91851 -57.85283,8.36013 L 350.34794,291 l -27.62866,0 -27.62865,0 -0.50133,-3.25 c -0.27573,-1.7875 -0.77369,-5.3875 -1.10659,-8 -0.33289,-2.6125 -0.91518,-4.74953 -1.29398,-4.74896 C 291.80993,275.00162 265.85,278.60115 234.5,283 l -57,7.99791 -27.70469,0.001 -27.70468,10e-4 -0.57483,-3.25 z m 85.40009,-107.25343 c 10.12874,-1.37226 18.64847,-2.7276 18.93275,-3.01188 0.43096,-0.43096 -5.79555,-64.46462 -6.3437,-65.23887 -0.24155,-0.34117 -42.90968,5.83091 -43.35289,6.27114 -0.37679,0.37425 5.58323,58.23418 6.45795,62.69387 0.45139,2.30134 0.93641,2.64058 3.21085,2.24579 1.47353,-0.25577 10.9663,-1.58779 21.09504,-2.96005 z M 613.986,289.75 c -0.0302,-2.7005 -3.92244,-35.01977 -4.25781,-35.35514 -0.19632,-0.19633 -24.15831,2.99169 -53.24885,7.08448 -29.09055,4.09279 -52.96834,7.34676 -53.06177,7.23105 -0.63998,-0.79261 -3.11706,-29.32923 -2.58586,-29.78975 0.36756,-0.31864 29.69329,-4.53563 65.16829,-9.37109 35.475,-4.83545 65.88388,-9.00836 67.57529,-9.27313 l 3.07529,-0.4814 1.18616,12.35249 c 0.65238,6.79387 1.181,22.81499 1.17471,35.60249 L 639,291 l -12.5,0 c -9.32587,0 -12.50355,-0.31741 -12.514,-1.25 z m 251.16719,-95.5 c -5.67664,-53.2125 -10.54247,-97.549404 -10.81296,-98.526454 -0.45802,-1.654455 0.55935,-1.757469 14.8142,-1.5 L 884.46042,94.5 l 6.62105,61.55377 c 3.64157,33.85457 6.87745,62.20457 7.19084,63 0.31339,0.79542 0.60532,-2.67892 0.64874,-7.72077 l 0.0789,-9.16699 8.25,-6.49544 c 21.49398,-16.92277 37.51054,-37.51248 45.31982,-58.25985 3.07095,-8.15875 5.58485,-21.41258 4.06004,-21.4054 -0.62142,0.003 -13.27986,1.80053 -28.12986,3.99468 -14.85,2.19415 -27.5625,3.99176 -28.25,3.99468 C 899.30532,123.9987 899,120.33617 899,109 l 0,-15 45,0 45,0 -0.0194,4.25 c -0.0324,7.07229 -2.56667,22.68296 -5.3168,32.75 -8.32852,30.4871 -26.39291,58.57923 -53.29652,82.88201 -7.57248,6.84043 -23.78207,19.12103 -25.23136,19.11561 -0.34974,-0.001 -1.98588,-2.58634 -3.63588,-5.74453 l -3,-5.74215 -0.26296,34.74453 -0.26296,34.74453 -11.24987,0 -11.24987,0 -10.32115,-96.75 z M 940,289.93801 c 0,-0.58409 -1.16492,-11.64417 -2.58871,-24.57795 -1.42379,-12.93378 -2.43629,-23.65715 -2.25,-23.82972 0.18629,-0.17256 6.79553,-1.1838 14.68719,-2.24719 9.87896,-1.33119 14.4506,-1.59855 14.6763,-0.8583 0.35004,1.148 5.48007,49.2215 5.47703,51.32515 -10e-4,0.94436 -3.66944,1.25 -15.00181,1.25 -9.91703,0 -15,-0.35987 -15,-1.06199 z m 85.2009,-5.68873 45.7008,-6.52603 0.2992,-4.61162 0.2991,-4.61163 86,-12.04277 86,-12.04277 0.2768,14.93264 c 0.1522,8.21295 0.1434,15.06598 -0.02,15.22897 -0.163,0.16298 -26.174,3.92504 -57.8023,8.36013 l -57.506,8.0638 -27.6482,0 -27.6483,0 -0.9574,-5.25 -0.9575,-5.25 -0.1188,5.25 -0.1188,5.25 -45.75,-0.11235 -45.75,-0.11235 45.7009,-6.52602 z M 728.18939,249.25 c -2.07503,-19.30437 -2.22899,-25.29121 -2.2099,-85.93261 0.0193,-61.21318 0.12708,-65.212785 1.77051,-65.678043 0.9625,-0.272486 4.48332,-0.787804 7.82404,-1.145152 l 6.07404,-0.649724 2.84344,26.077769 C 747.14897,146.29421 747.46456,148 749.3162,148 c 2.34356,0 40.00239,-4.98526 40.35997,-5.34283 0.13503,-0.13503 -0.85423,-9.90063 -2.19836,-21.70134 C 786.13369,109.15512 785.02631,98.2625 785.01697,96.75 L 785,94 l 14.78236,0 14.78236,0 8.78781,80.5965 c 4.8333,44.32807 8.62998,80.75433 8.43707,80.94723 C 831.47984,255.85349 732.99747,270 731.15082,270 c -0.40206,0 -1.73471,-9.3375 -2.96143,-20.75 z m 50.14822,-16.19846 c 10.91069,-1.59139 20.07556,-3.13138 20.36639,-3.4222 0.63884,-0.63885 -5.31565,-55.57433 -6.10982,-56.3685 -0.30694,-0.30694 -9.7912,0.72682 -21.07613,2.29724 -19.05346,2.6515 -20.51895,3.00117 -20.53068,4.89862 -0.0165,2.67259 4.98339,50.36942 5.58657,53.2933 0.25529,1.2375 0.79309,2.23762 1.19511,2.22249 0.40202,-0.0151 9.65788,-1.32956 20.56856,-2.92095 z m 264.28439,1.68936 c -0.3313,-2.3325 -3.7557,-33.4909 -7.6099,-69.2409 -3.8542,-35.75 -7.254,-66.4625 -7.5552,-68.25 l -0.5475,-3.25 15.0262,0 c 14.7766,0 15.0341,0.0374 15.4975,2.25 1.194,5.70176 13.5726,126.01168 13.5699,131.88871 l 0,6.63871 -3.25,0.56922 c -1.7875,0.31307 -7.075,1.04692 -11.75,1.63077 -4.675,0.58385 -9.462,1.27368 -10.6378,1.53296 -1.8582,0.40976 -2.2166,-0.0833 -2.7402,-3.76947 z m -740.79141,-20.23604 -8.6694,-12.41096 9.46454,-6.70892 c 17.66083,-12.51883 33.21038,-29.63115 42.32858,-46.58269 7.36101,-13.68476 11.25177,-33.50592 9.23605,-47.05229 l -0.8556,-5.75 14.72563,0 C 383.8607,96 384,96.046944 384,101.37169 c 0,7.24303 5.99739,22.31651 12.95666,32.56449 11.34337,16.70385 36.76559,34.52921 59.40877,41.65579 3.22598,1.01532 6.04421,2.31196 6.26273,2.8814 0.68031,1.77288 -10.32977,28.00643 -11.88686,28.32264 -1.90086,0.38602 -14.42937,-4.61482 -25.53559,-10.1927 C 409.95993,188.94642 398.35224,180.49871 386,168.07062 L 374.5,156.5 l -3.8387,7.54063 c -9.37384,18.41366 -28.86525,40.64863 -48.45412,55.27438 -5.66105,4.22675 -10.61105,7.66605 -11,7.6429 -0.38895,-0.0231 -4.60841,-5.62703 -9.37659,-12.45305 z M 1085.2329,222.75 c -1.0616,-1.7875 -3.6328,-6.4 -5.7139,-10.25 -2.081,-3.85 -4.6325,-8.41662 -5.6699,-10.14804 l -1.8862,-3.14804 6.7686,-3.71525 c 17.3771,-9.5383 38.0039,-27.71158 45.1231,-39.75578 6.5416,-11.06704 10.1454,-22.6036 10.1454,-32.47779 0,-4.12872 -0.1727,-4.43103 -2.25,-3.93918 -1.2375,0.293 -14.7488,2.22049 -30.0251,4.28329 -19.4139,2.62151 -28.0915,3.4342 -28.826,2.69965 -0.6152,-0.61515 -1.1231,-6.79452 -1.2249,-14.90243 l -0.174,-13.851509 3,-0.654146 c 4.2233,-0.920887 148.2802,-1.055408 148.8466,-0.138994 0.2555,0.413479 0.6098,2.762383 0.7872,5.219789 l 0.3226,4.468 -30.2998,4.18513 c -16.6649,2.30181 -30.5342,4.41954 -30.8207,4.70606 -0.785,0.78501 2.5248,11.46077 5.174,16.68869 9.2032,18.16182 32.2077,33.38258 61.9901,41.01546 4.95,1.26862 9.0832,2.35046 9.1849,2.40409 0.1017,0.0536 -1.7461,6.83929 -4.1063,15.07925 -2.8198,9.84448 -4.7941,15.08092 -5.7578,15.27097 -2.518,0.49656 -22.8072,-6.62847 -33.7212,-11.84196 -13.5819,-6.48792 -25.1005,-14.22274 -34.8784,-23.4211 l -7.8845,-7.41723 -7.2148,10.97821 c -8.4905,12.91931 -22.1023,27.07533 -36.1219,37.56587 -9.0614,6.78045 -20.7426,14.33894 -22.1684,14.34442 -0.3677,0.001 -1.5371,-1.45993 -2.5987,-3.24743 z M 466,156 l 0,-62 36.39159,0 36.39159,0 0.54344,2.25 c 0.29889,1.2375 0.84797,5.43286 1.22018,9.32303 l 0.67674,7.07303 -23.86177,3.25452 c -42.46146,5.79134 -38.53686,4.96678 -37.97517,7.97858 0.26883,1.44146 0.77595,5.22233 1.12693,8.40193 l 0.63815,5.78108 3.17416,-0.5556 c 1.74579,-0.30559 19.57766,-2.81057 39.62638,-5.56664 20.04872,-2.75607 36.57433,-5.13315 36.72359,-5.2824 0.14925,-0.14926 -0.38297,-6.09576 -1.18271,-13.21445 -0.79975,-7.1187 -1.46286,-14.40558 -1.47359,-16.19308 L 558,94 l 14.45469,0 14.45468,0 0.55024,3.25 c 0.99447,5.8739 12.70789,115.91681 12.37019,116.21303 -0.48704,0.42723 -28.2779,4.33888 -28.63173,4.03001 -0.16606,-0.14496 -1.75629,-13.79292 -3.53383,-30.3288 -1.77755,-16.53589 -3.47714,-30.31047 -3.77686,-30.61019 -0.29972,-0.29972 -7.25949,0.3388 -15.46616,1.41894 -52.76704,6.94505 -63.00105,8.38791 -63.67608,8.97746 -0.59144,0.51655 0.93947,16.90242 1.6588,17.75479 0.0953,0.11289 15.20643,-1.99674 33.58036,-4.68805 18.37393,-2.69131 33.68842,-4.71946 34.03221,-4.50699 0.89942,0.55588 3.39408,28.41254 2.61428,29.19235 -0.54523,0.54523 -85.57753,13.16444 -89.38079,13.26455 C 466.26309,217.99308 466,204.95088 466,156 z m 143.99711,54.75 c -0.002,-0.6875 -2.7016,-26.13693 -6,-56.5543 C 600.6987,123.77834 598,97.790839 598,96.445702 L 598,94 l 14.79655,0 14.79655,0 5.79694,54.8173 c 3.18832,30.14951 5.64237,55.90681 5.45345,57.23845 -0.32401,2.28382 -0.99581,2.51685 -11.84349,4.10817 -14.23648,2.08845 -16.9992,2.18368 -17.00289,0.58608 z"
     id="path5354"
     inkscape:connector-curvature="0" />
</svg>
